<svg id="visual" viewBox="0 0 400 500" width="400" height="500" xmlns="http://www.w3.org/2000/svg" xmlns:xlink="http://www.w3.org/1999/xlink" version="1.1"><rect x="0" y="0" width="400" height="500" fill="#4e505c"></rect><path d="M0 184L22.2 167C44.3 150 88.7 116 133.2 110.2C177.7 104.3 222.3 126.7 266.8 133.7C311.3 140.7 355.7 132.3 377.8 128.2L400 124L400 501L377.8 501C355.7 501 311.3 501 266.8 501C222.3 501 177.7 501 133.2 501C88.7 501 44.3 501 22.2 501L0 501Z" fill="#272b3f"></path><path d="M0 151L22.2 170.7C44.3 190.3 88.7 229.7 133.2 233.3C177.7 237 222.3 205 266.8 193.3C311.3 181.7 355.7 190.3 377.8 194.7L400 199L400 501L377.8 501C355.7 501 311.3 501 266.8 501C222.3 501 177.7 501 133.2 501C88.7 501 44.3 501 22.2 501L0 501Z" fill="#35384d"></path><path d="M0 215L22.2 224.2C44.3 233.3 88.7 251.7 133.2 261.5C177.7 271.3 222.3 272.7 266.8 274.5C311.3 276.3 355.7 278.7 377.8 279.8L400 281L400 501L377.8 501C355.7 501 311.3 501 266.8 501C222.3 501 177.7 501 133.2 501C88.7 501 44.3 501 22.2 501L0 501Z" fill="#43465c"></path><path d="M0 286L22.2 294.7C44.3 303.3 88.7 320.7 133.2 321C177.7 321.3 222.3 304.7 266.8 298.7C311.3 292.7 355.7 297.3 377.8 299.7L400 302L400 501L377.8 501C355.7 501 311.3 501 266.8 501C222.3 501 177.7 501 133.2 501C88.7 501 44.3 501 22.2 501L0 501Z" fill="#51556b"></path><path d="M0 323L22.2 323.7C44.3 324.3 88.7 325.7 133.2 329.5C177.7 333.3 222.3 339.7 266.8 345.7C311.3 351.7 355.7 357.3 377.8 360.2L400 363L400 501L377.8 501C355.7 501 311.3 501 266.8 501C222.3 501 177.7 501 133.2 501C88.7 501 44.3 501 22.2 501L0 501Z" fill="#60647a"></path><path d="M0 361L22.2 362.2C44.3 363.3 88.7 365.7 133.2 376.3C177.7 387 222.3 406 266.8 403.3C311.3 400.7 355.7 376.3 377.8 364.2L400 352L400 501L377.8 501C355.7 501 311.3 501 266.8 501C222.3 501 177.7 501 133.2 501C88.7 501 44.3 501 22.2 501L0 501Z" fill="#6f738a"></path><path d="M0 428L22.2 431.7C44.3 435.3 88.7 442.7 133.2 446.2C177.7 449.7 222.3 449.3 266.8 442.8C311.3 436.3 355.7 423.7 377.8 417.3L400 411L400 501L377.8 501C355.7 501 311.3 501 266.8 501C222.3 501 177.7 501 133.2 501C88.7 501 44.3 501 22.2 501L0 501Z" fill="#7f839a"></path></svg>