<svg id="visual" viewBox="0 0 30 8" width="30" height="8" xmlns="http://www.w3.org/2000/svg" xmlns:xlink="http://www.w3.org/1999/xlink" version="1.1"><rect x="0" y="0" width="30" height="8" fill="#32364c"></rect><path d="M0 2L1.7 2.2C3.3 2.3 6.7 2.7 10 2.5C13.3 2.3 16.7 1.7 20 1.5C23.3 1.3 26.7 1.7 28.3 1.8L30 2L30 9L28.3 9C26.7 9 23.3 9 20 9C16.7 9 13.3 9 10 9C6.7 9 3.3 9 1.7 9L0 9Z" fill="#272b3f"></path><path d="M0 2L1.7 2.2C3.3 2.3 6.7 2.7 10 2.7C13.3 2.7 16.7 2.3 20 2.5C23.3 2.7 26.7 3.3 28.3 3.7L30 4L30 9L28.3 9C26.7 9 23.3 9 20 9C16.7 9 13.3 9 10 9C6.7 9 3.3 9 1.7 9L0 9Z" fill="#3a3e55"></path><path d="M0 3L1.7 3C3.3 3 6.7 3 10 3.3C13.3 3.7 16.7 4.3 20 4.5C23.3 4.7 26.7 4.3 28.3 4.2L30 4L30 9L28.3 9C26.7 9 23.3 9 20 9C16.7 9 13.3 9 10 9C6.7 9 3.3 9 1.7 9L0 9Z" fill="#4e526d"></path><path d="M0 6L1.7 5.8C3.3 5.7 6.7 5.3 10 5.3C13.3 5.3 16.7 5.7 20 5.8C23.3 6 26.7 6 28.3 6L30 6L30 9L28.3 9C26.7 9 23.3 9 20 9C16.7 9 13.3 9 10 9C6.7 9 3.3 9 1.7 9L0 9Z" fill="#626886"></path></svg>