<svg id="visual" viewBox="0 0 1920 1080" width="1920" height="1080" xmlns="http://www.w3.org/2000/svg" xmlns:xlink="http://www.w3.org/1999/xlink" version="1.1"><rect x="0" y="0" width="1920" height="1080" fill="#272b3f"></rect><path d="M0 844L53.3 822C106.7 800 213.3 756 320 734.5C426.7 713 533.3 714 640 746.5C746.7 779 853.3 843 960 877.3C1066.7 911.7 1173.3 916.3 1280 893.5C1386.7 870.7 1493.3 820.3 1600 804C1706.7 787.7 1813.3 805.3 1866.7 814.2L1920 823L1920 1081L1866.7 1081C1813.3 1081 1706.7 1081 1600 1081C1493.3 1081 1386.7 1081 1280 1081C1173.3 1081 1066.7 1081 960 1081C853.3 1081 746.7 1081 640 1081C533.3 1081 426.7 1081 320 1081C213.3 1081 106.7 1081 53.3 1081L0 1081Z" fill="#ff6f61"></path><path d="M0 889L53.3 902.8C106.7 916.7 213.3 944.3 320 958.7C426.7 973 533.3 974 640 955.3C746.7 936.7 853.3 898.3 960 901.2C1066.7 904 1173.3 948 1280 939.2C1386.7 930.3 1493.3 868.7 1600 836.7C1706.7 804.7 1813.3 802.3 1866.7 801.2L1920 800L1920 1081L1866.7 1081C1813.3 1081 1706.7 1081 1600 1081C1493.3 1081 1386.7 1081 1280 1081C1173.3 1081 1066.7 1081 960 1081C853.3 1081 746.7 1081 640 1081C533.3 1081 426.7 1081 320 1081C213.3 1081 106.7 1081 53.3 1081L0 1081Z" fill="#ff8b80"></path><path d="M0 928L53.3 925C106.7 922 213.3 916 320 918.8C426.7 921.7 533.3 933.3 640 952.8C746.7 972.3 853.3 999.7 960 1002.8C1066.7 1006 1173.3 985 1280 984.8C1386.7 984.7 1493.3 1005.3 1600 1005.2C1706.7 1005 1813.3 984 1866.7 973.5L1920 963L1920 1081L1866.7 1081C1813.3 1081 1706.7 1081 1600 1081C1493.3 1081 1386.7 1081 1280 1081C1173.3 1081 1066.7 1081 960 1081C853.3 1081 746.7 1081 640 1081C533.3 1081 426.7 1081 320 1081C213.3 1081 106.7 1081 53.3 1081L0 1081Z" fill="#fca69e"></path></svg>